<svg xmlns="http://www.w3.org/2000/svg" width="40" height="32" fill="none"><path fill="#1F2937" d="M20 .5C30.77.5 39.5 9.23 39.5 20v11.5H.5V.5z"/><path stroke="#fff" d="M20 .5C30.77.5 39.5 9.23 39.5 20v11.5H.5V.5z"/><path stroke="#fff" stroke-linecap="round" stroke-linejoin="round" stroke-width="2" d="m29.333 9.333-1.156 16.19A2.667 2.667 0 0 1 25.517 28H14.483c-1.4 0-2.56-1.081-2.66-2.477l-1.156-16.19m6.666 5.334v8m5.334-8v8M24 9.333v-4C24 4.597 23.403 4 22.667 4h-5.334C16.597 4 16 4.597 16 5.333v4m-6.667 0h21.334"/></svg>