<svg xmlns="http://www.w3.org/2000/svg" width="32" height="32" fill="none"><path fill="#858584" d="M12 19.5a1.5 1.5 0 1 0 0-3 1.5 1.5 0 0 0 0 3M20 19.5a1.5 1.5 0 1 0 0-3 1.5 1.5 0 0 0 0 3"/><path fill="#858584" fill-rule="evenodd" d="M15.993 10a20.9 20.9 0 0 0-6.394.954 1 1 0 0 1-.598-1.909 22.9 22.9 0 0 1 7-1.045 22.9 22.9 0 0 1 6.998 1.045 1 1 0 1 1-.598 1.909A20.9 20.9 0 0 0 16.008 10zM8.346 21.701a1 1 0 0 1 1.253-.655c2.069.648 4.226.97 6.394.954h.014a20.9 20.9 0 0 0 6.394-.954 1 1 0 1 1 .598 1.908A22.9 22.9 0 0 1 16 24a22.9 22.9 0 0 1-6.999-1.046 1 1 0 0 1-.655-1.253" clip-rule="evenodd"/><path fill="#858584" fill-rule="evenodd" d="M20.22 4.811c.43-.242.935-.318 1.418-.213 1.317.286 2.607.686 3.855 1.197a1.96 1.96 0 0 1 1.179 1.286l4.236 14.144a2.01 2.01 0 0 1-.596 2.088l-.006.004c-2.067 1.8-4.868 3.16-8.05 3.94a1.976 1.976 0 0 1-2.266-1.053l-1.508-2.991a1 1 0 0 1 1.786-.9l1.512 3 .002.002c2.937-.72 5.432-1.958 7.212-3.507l.656.755-.662-.75.004-.006V21.8L24.756 7.655l-.01-.005a21 21 0 0 0-3.533-1.097h-.002a.01.01 0 0 0-.014.006l-.985 2.98a1 1 0 0 1-1.899-.628l.99-2.996c.16-.468.486-.86.917-1.104M10.798 6.553a.01.01 0 0 0-.01 0h-.001a21 21 0 0 0-3.543 1.102L3.008 21.8v.007q0 .003.003.005c1.78 1.547 4.272 2.783 7.208 3.503v-.003l1.513-3a1 1 0 0 1 1.786.9l-1.508 2.992a1.975 1.975 0 0 1-2.266 1.054c-3.182-.78-5.983-2.142-8.05-3.94l-.006-.005a2.01 2.01 0 0 1-.596-2.087L5.328 7.08a1.96 1.96 0 0 1 1.18-1.286 23 23 0 0 1 3.855-1.197 2.013 2.013 0 0 1 2.334 1.317l.003.009.987 2.987a1 1 0 1 1-1.899.628l-.985-2.98z" clip-rule="evenodd"/><path fill="#858584" d="M12 19.5a1.5 1.5 0 1 0 0-3 1.5 1.5 0 0 0 0 3M20 19.5a1.5 1.5 0 1 0 0-3 1.5 1.5 0 0 0 0 3"/><path fill="#858584" fill-rule="evenodd" d="M15.993 10a20.9 20.9 0 0 0-6.394.954 1 1 0 0 1-.598-1.909 22.9 22.9 0 0 1 7-1.045 22.9 22.9 0 0 1 6.998 1.045 1 1 0 1 1-.598 1.909A20.9 20.9 0 0 0 16.008 10zM8.346 21.701a1 1 0 0 1 1.253-.655c2.069.648 4.226.97 6.394.954h.014a20.9 20.9 0 0 0 6.394-.954 1 1 0 1 1 .598 1.908A22.9 22.9 0 0 1 16 24a22.9 22.9 0 0 1-6.999-1.046 1 1 0 0 1-.655-1.253" clip-rule="evenodd"/><path fill="#858584" fill-rule="evenodd" d="M20.22 4.811c.43-.242.935-.318 1.418-.213 1.317.286 2.607.686 3.855 1.197a1.96 1.96 0 0 1 1.179 1.286l4.236 14.144a2.01 2.01 0 0 1-.596 2.088l-.006.004c-2.067 1.8-4.868 3.16-8.05 3.94a1.976 1.976 0 0 1-2.266-1.053l-1.508-2.991a1 1 0 0 1 1.786-.9l1.512 3 .002.002c2.937-.72 5.432-1.958 7.212-3.507l.656.755-.662-.75.004-.006V21.8L24.756 7.655l-.01-.005a21 21 0 0 0-3.533-1.097h-.002a.01.01 0 0 0-.014.006l-.985 2.98a1 1 0 0 1-1.899-.628l.99-2.996c.16-.468.486-.86.917-1.104M10.798 6.553a.01.01 0 0 0-.01 0h-.001a21 21 0 0 0-3.543 1.102L3.008 21.8v.007q0 .003.003.005c1.78 1.547 4.272 2.783 7.208 3.503v-.003l1.513-3a1 1 0 0 1 1.786.9l-1.508 2.992a1.975 1.975 0 0 1-2.266 1.054c-3.182-.78-5.983-2.142-8.05-3.94l-.006-.005a2.01 2.01 0 0 1-.596-2.087L5.328 7.08a1.96 1.96 0 0 1 1.18-1.286 23 23 0 0 1 3.855-1.197 2.013 2.013 0 0 1 2.334 1.317l.003.009.987 2.987a1 1 0 1 1-1.899.628l-.985-2.98z" clip-rule="evenodd"/></svg>