<svg xmlns="http://www.w3.org/2000/svg" width="20" height="20" fill="none"><path fill="#fff" fill-rule="evenodd" d="M1.875 4.375c0-.345.28-.625.625-.625h15c.345 0 .625.28.625.625V15a1.25 1.25 0 0 1-1.25 1.25H3.125A1.25 1.25 0 0 1 1.875 15zM3.125 5v10h13.75V5z" clip-rule="evenodd"/><path fill="#fff" fill-rule="evenodd" d="M2.04 3.953a.625.625 0 0 1 .882-.039L10 10.402l7.078-6.488a.625.625 0 1 1 .844.922l-7.5 6.875a.625.625 0 0 1-.844 0l-7.5-6.875a.625.625 0 0 1-.039-.883" clip-rule="evenodd"/></svg>