<svg xmlns="http://www.w3.org/2000/svg" width="183" height="24" fill="none"><path fill="#fff" fill-rule="evenodd" d="M4.5 9.338a.75.75 0 0 1 .75.75V19.5h13.5v-9.412a.75.75 0 0 1 1.5 0V19.5a1.5 1.5 0 0 1-1.5 1.5H5.25a1.5 1.5 0 0 1-1.5-1.5v-9.412a.75.75 0 0 1 .75-.75M2.25 3.75A.75.75 0 0 1 3 3h18a.75.75 0 0 1 0 1.5H3a.75.75 0 0 1-.75-.75" clip-rule="evenodd"/><path fill="#fff" fill-rule="evenodd" d="M3 5.25a.75.75 0 0 1 .75.75v1.5a2.25 2.25 0 1 0 4.5 0V6a.75.75 0 0 1 1.5 0v1.5a3.75 3.75 0 1 1-7.5 0V6A.75.75 0 0 1 3 5.25" clip-rule="evenodd"/><path fill="#fff" fill-rule="evenodd" d="M9 5.25a.75.75 0 0 1 .75.75v1.5a2.25 2.25 0 1 0 4.5 0V6a.75.75 0 0 1 1.5 0v1.5a3.75 3.75 0 1 1-7.5 0V6A.75.75 0 0 1 9 5.25" clip-rule="evenodd"/><path fill="#fff" fill-rule="evenodd" d="M15 5.25a.75.75 0 0 1 .75.75v1.5a2.25 2.25 0 0 0 4.5 0V6a.75.75 0 0 1 1.5 0v1.5a3.75 3.75 0 1 1-7.5 0V6a.75.75 0 0 1 .75-.75" clip-rule="evenodd"/><path fill="#fff" d="M38.61 16.91h.297V6.45h2.178V18h-4.257L35.475 7.539h-.297v10.46H33V6.45h4.257zM43.549 6.45h7.392v2.079h-5.215v2.64h5.116v2.079h-5.115V18h-2.178zM53.09 6.45h8.317v2.079h-3.07v9.47H56.16V8.53h-3.07zM72.769 6.45h3.828l.66 8.679v1.683h.396v-1.683l.66-8.68h3.828V18h-1.98v-7.721l.198-2.64h-.396L79.105 18h-3.267l-.891-10.362h-.396l.198 2.64V18h-1.98zM89.092 16.812q-.33.775-.924 1.105-.594.315-1.386.314-.742 0-1.402-.28a3.3 3.3 0 0 1-1.139-.826 4.1 4.1 0 0 1-.792-1.32q-.28-.775-.28-1.765v-.264q0-.974.28-1.75.28-.774.76-1.32a3.2 3.2 0 0 1 1.105-.824 3.2 3.2 0 0 1 1.37-.297q.874 0 1.402.297.544.297.858.924h.297v-.99h2.079v5.709q0 .495.445.495h.314V18h-1.42q-.56 0-.923-.33-.347-.33-.347-.858zm-1.848-.561q.908 0 1.452-.594.545-.61.545-1.65v-.198q0-1.04-.545-1.634-.544-.61-1.452-.61t-1.452.61q-.544.593-.544 1.634v.198q0 1.04.544 1.65.544.594 1.452.594M93.503 9.816h3.465v1.188h.297q.23-.677.775-1.04.561-.38 1.337-.38 1.22.001 1.963.776.743.76.743 2.327v.363l-2.145.198v-.231q0-.677-.347-1.073-.345-.412-1.04-.412-.692 0-1.088.478-.396.48-.396 1.37v2.64h1.88V18h-5.642v-1.98h1.683v-4.224h-1.485zM106.741 12.819h.396l2.178-3.003h2.277v.099l-2.64 3.745v.297l2.904 3.944V18h-2.376l-2.343-3.201h-.396v3.2h-2.079V6.45h2.079zM115.936 14.584q.017.363.165.677.165.297.429.528.28.214.627.346.363.116.759.116.775 0 1.188-.264.413-.28.594-.66l1.782.99a3.8 3.8 0 0 1-.412.66q-.264.33-.693.61a3.7 3.7 0 0 1-1.023.462q-.594.182-1.403.182a4.6 4.6 0 0 1-1.683-.297 3.8 3.8 0 0 1-1.32-.858 4 4 0 0 1-.858-1.37q-.297-.809-.297-1.831v-.1q0-.94.314-1.715.33-.775.891-1.32a4 4 0 0 1 1.303-.842 4.2 4.2 0 0 1 1.617-.313q1.056 0 1.815.38.759.362 1.254.94a3.6 3.6 0 0 1 .726 1.254q.231.675.231 1.32v1.105zm1.964-3.118q-.792 0-1.287.412-.495.396-.644.924h3.861q-.099-.578-.627-.957-.511-.38-1.303-.38M123.977 9.816h2.425V6.45h2.079v3.366h2.954v1.98h-2.954v3.729q0 .495.446.495h2.211V18h-3.465q-.561 0-.924-.363-.347-.363-.347-.924v-4.917h-2.425zM135.961 21.3h-2.079V9.816h2.079v1.188h.297a2.37 2.37 0 0 1 .957-1.04q.627-.38 1.6-.38.726 0 1.37.281.66.28 1.138.825.495.528.776 1.304.297.775.297 1.765v.297q0 1.006-.281 1.782-.28.776-.759 1.32a3.2 3.2 0 0 1-1.138.809 3.7 3.7 0 0 1-1.403.264 3.6 3.6 0 0 1-.973-.116 2.7 2.7 0 0 1-.726-.313 2.5 2.5 0 0 1-.512-.446 4 4 0 0 1-.346-.544h-.297zm2.178-5.05q.973 0 1.567-.593.61-.61.611-1.65v-.198q0-1.04-.611-1.634-.594-.61-1.567-.61-.974 0-1.584.627-.594.61-.594 1.617v.198q0 1.005.594 1.633.61.61 1.584.61M144.364 16.02h2.871V8.43h-2.772V6.45h4.851v9.57h2.673V18h-7.623zM159.813 16.812q-.33.775-.924 1.105-.594.315-1.386.314-.742 0-1.402-.28a3.3 3.3 0 0 1-1.139-.826 4.1 4.1 0 0 1-.792-1.32q-.28-.775-.28-1.765v-.264q0-.974.28-1.75.28-.774.759-1.32a3.2 3.2 0 0 1 1.106-.824 3.2 3.2 0 0 1 1.369-.297q.875 0 1.403.297.544.297.858.924h.297v-.99h2.079v5.709q0 .495.445.495h.314V18h-1.419q-.561 0-.924-.33-.347-.33-.347-.858zm-1.848-.561q.907 0 1.452-.594.545-.61.545-1.65v-.198q0-1.04-.545-1.634-.544-.61-1.452-.61t-1.452.61q-.544.593-.544 1.634v.198q0 1.04.544 1.65.544.594 1.452.594M172.606 14.997q-.28 1.452-1.337 2.343-1.04.89-2.788.89a5 5 0 0 1-1.7-.28 4 4 0 0 1-1.353-.808 3.7 3.7 0 0 1-.907-1.304q-.33-.775-.33-1.765v-.198q0-.99.33-1.782a4 4 0 0 1 .907-1.353q.594-.561 1.37-.858a4.8 4.8 0 0 1 1.683-.297q1.716 0 2.772.89 1.072.892 1.353 2.344l-2.046.528a2.14 2.14 0 0 0-.627-1.254q-.528-.528-1.485-.528-.446 0-.842.165a2 2 0 0 0-.693.478 2.2 2.2 0 0 0-.478.743q-.165.429-.165.973v.1q0 .543.165.973.181.412.478.693t.693.429q.396.132.842.132.957 0 1.452-.479.512-.478.66-1.287zM176.554 14.584q.016.363.165.677.165.297.429.528.28.214.627.346.363.116.759.116.776 0 1.188-.264.412-.28.594-.66l1.782.99a3.8 3.8 0 0 1-.412.66q-.264.33-.693.61a3.7 3.7 0 0 1-1.023.462q-.594.182-1.403.182a4.6 4.6 0 0 1-1.683-.297 3.8 3.8 0 0 1-1.32-.858 4 4 0 0 1-.858-1.37q-.297-.809-.297-1.831v-.1q0-.94.314-1.715.33-.775.891-1.32a4 4 0 0 1 1.303-.842 4.2 4.2 0 0 1 1.617-.313q1.056 0 1.815.38.759.362 1.254.94a3.6 3.6 0 0 1 .726 1.254q.231.675.231 1.32v1.105zm1.964-3.118q-.792 0-1.287.412-.495.396-.644.924h3.861q-.099-.578-.627-.957-.511-.38-1.303-.38"/></svg>